<svg width="79" height="113" viewBox="0 0 79 113" fill="none" xmlns="http://www.w3.org/2000/svg">
<path d="M50.3462 99.0004C57.3644 101.624 63.2353 106.612 67 113H11C14.7649 106.612 20.6364 101.624 27.6551 99" fill="#444444"/>
<path d="M34 99C30.9409 101.624 28.3801 106.611 26.7391 113H11C14.7584 106.611 20.6186 101.624 27.6236 99H34Z" fill="#222222"/>
<path d="M51 98.5961L39.5 113L31.2098 102.618L28 98.5961C29.4761 98.0346 31.0015 97.5804 32.5696 97.2381V85H46.4304V97.2381C47.9985 97.5804 49.5239 98.0346 51 98.5961Z" fill="#FFDDCE"/>
<path d="M32.5698 95.0978V97.2381C31.5509 97.4359 30.915 97.6025 29.9436 98.0067C29.2927 98.2775 28.3512 98.6267 27.6553 99L31.4834 103C34.5267 100.245 38.3721 100.754 38.3721 100.754V91.3628H42.7255C44.5317 91.3628 44.7113 91.281 46.4152 90.9684V84.1902L32.5849 84.8456L32.5698 95.0978Z" fill="#FFCBBE"/>
<path d="M5.99473 49.859L2.20191 24.7212C0.976708 16.6005 5.4156 8.66617 13.1196 5.20662C28.5782 -1.73547 46.4203 -1.73547 61.8791 5.20619L61.8802 5.20662C69.5842 8.66617 74.0233 16.6005 72.7981 24.7212L69.0053 49.8587L67.102 59L7.37895 58.6228" fill="#4B3E38"/>
<path d="M36 0C33.5908 0 31.1814 1.74816 28.9432 5.24017C26.9596 8.33805 25.7265 14.9967 25.7265 22.1833C25.7265 23.0764 25.744 23.9783 25.7836 24.8801L26.8829 50.1768L14.5174 59L5.82469 50.1768L2.19299 24.8803C2.06348 23.974 2 23.072 2 22.1768C2 14.9947 6.08798 8.33805 12.6486 5.24017C20.052 1.74816 28.026 0 36 0V0Z" fill="#2F2825"/>
<ellipse cx="8.83358" cy="59.5" rx="8.83358" ry="8.5" fill="#FFCBBE"/>
<ellipse cx="70.1666" cy="59.5" rx="8.83358" ry="8.5" fill="#FFCBBE"/>
<path d="M10.8422 62C10.2189 62 9.61431 61.6812 9.28973 61.1163C8.73287 60.146 7.7754 59.6077 6.36317 59.4703C5.20753 59.3578 4.20726 59.5785 4.19768 59.5807C3.24534 59.8065 2.28498 59.2429 2.05158 58.321C1.81795 57.3991 2.40001 56.4681 3.3519 56.242C3.51062 56.2042 4.95429 55.8779 6.71807 56.0498C9.29843 56.301 11.2602 57.4751 12.3913 59.4455C12.8677 60.2752 12.5594 61.3217 11.7029 61.7832C11.43 61.93 11.134 61.9998 10.8422 62Z" fill="#EAAC9D"/>
<path d="M64.1574 62C63.8654 62 63.5698 61.93 63.2965 61.783C62.4402 61.3215 62.1319 60.275 62.6083 59.4453C63.7397 57.4749 65.7014 56.3008 68.2818 56.0496C70.0449 55.8779 71.489 56.204 71.6479 56.2418C72.5996 56.4681 73.1819 57.3989 72.9482 58.3208C72.7151 59.2403 71.7578 59.8035 70.8095 59.5822C70.7743 59.5744 69.7368 59.3474 68.5519 59.4787C67.185 59.6303 66.2554 60.1659 65.7099 61.1161C65.3853 61.6813 64.7807 61.9998 64.1574 62Z" fill="#EAAC9D"/>
<path d="M56.4558 34.8805L50.6307 23L47.6576 34.8805H11V60.4135C11 73.9922 22.1391 85 35.8799 85H40.1201C53.8609 85 65 73.9922 65 60.4135V34.8805H56.4558Z" fill="#FFDDCE"/>
<path d="M45 84.264C43.1393 84.7462 41.1897 85 39.1846 85H35.079C21.7805 85 11 73.7992 11 59.9822V34H26.7322V59.9822C26.732 71.7158 34.5082 81.5648 45 84.264Z" fill="#FFCBBE"/>
<path d="M24.947 51C23.3218 51 22 52.7944 22 55C22 57.2056 23.3218 59 24.947 59C26.5721 59 27.8941 57.2056 27.8941 55C27.8941 52.7944 26.5721 51 24.947 51Z" fill="#2B4D66"/>
<path d="M50.0529 51C48.4278 51 47.106 52.7944 47.106 55C47.106 57.2056 48.4278 59 50.0529 59C51.678 59 53.0001 57.2056 53.0001 55C53.0001 52.7944 51.678 51 50.0529 51Z" fill="#2B4D66"/>
<path d="M29.2516 48C28.8043 48 28.3567 47.7972 28.0154 47.3913C26.6281 45.7426 24.3717 45.7426 22.9846 47.3913C22.3019 48.2028 21.1949 48.2028 20.512 47.3913C19.8293 46.5795 19.8293 45.2638 20.5122 44.452C23.2622 41.1827 27.7378 41.1827 30.4878 44.452C31.1707 45.2635 31.1707 46.5795 30.488 47.3913C30.1463 47.7969 29.6987 48 29.2516 48Z" fill="#4B3E38"/>
<path d="M54.2516 48C53.8043 48 53.3567 47.7972 53.0154 47.3913C51.6281 45.7426 49.3717 45.7426 47.9846 47.3913C47.3019 48.2028 46.1949 48.2028 45.512 47.3913C44.8293 46.5795 44.8293 45.2638 45.5122 44.452C48.2622 41.1827 52.7378 41.1827 55.4878 44.452C56.1707 45.2635 56.1707 46.5795 55.488 47.3913C55.1466 47.7969 54.699 48 54.2516 48Z" fill="#4B3E38"/>
<path d="M38 70C34.827 70 31.9784 67.6967 31.0721 64.3989C30.8009 63.4118 31.3185 62.3727 32.2277 62.0784C33.1365 61.7841 34.0942 62.3454 34.3658 63.3328C34.8408 65.0618 36.3352 66.2694 38 66.2694C39.6667 66.2694 41.1609 65.0626 41.6337 63.3348C41.904 62.3471 42.8608 61.7844 43.7702 62.0777C44.6801 62.371 45.1988 63.4093 44.9283 64.3967C44.0258 67.6959 41.1767 70 38 70Z" fill="#EAA598"/>
</svg>
