<svg width="21" height="21" viewBox="0 0 21 21" fill="none" xmlns="http://www.w3.org/2000/svg">
<path fill-rule="evenodd" clip-rule="evenodd" d="M4.67353 0H0V2.0087H3.13906L5.8396 14.7414H5.85208V15.0652H18.5316V14.816L20.6707 5.11308L21 4.01739H5.51578L4.95949 1.39456L4.67353 0ZM18.5188 6.02609H5.94181L7.43293 13.0565H16.9689L18.5188 6.02609ZM8.77812 20.087C9.85549 20.087 10.7288 19.1877 10.7288 18.0783C10.7288 16.9689 9.85549 16.0696 8.77812 16.0696C7.70078 16.0696 6.82743 16.9689 6.82743 18.0783C6.82743 19.1877 7.70078 20.087 8.77812 20.087ZM15.6056 20.087C16.6829 20.087 17.5562 19.1877 17.5562 18.0783C17.5562 16.9689 16.6829 16.0696 15.6056 16.0696C14.5282 16.0696 13.6549 16.9689 13.6549 18.0783C13.6549 19.1877 14.5282 20.087 15.6056 20.087Z" fill="#158AFE"/>
</svg>
