<svg width="18" height="22" viewBox="0 0 18 22" fill="none" xmlns="http://www.w3.org/2000/svg">
<path fill-rule="evenodd" clip-rule="evenodd" d="M12.9502 3.375H18V5.0625H15.259C16.9296 6.45578 18 8.58562 18 10.9688V19.0688C18 20.4645 16.8989 21.6 15.5455 21.6H2.45455C1.10111 21.6 0 20.4645 0 19.0688V10.9688C0 7.56025 2.189 4.66923 5.19333 3.71174C5.01218 3.35901 4.90909 2.95739 4.90909 2.53125V0H13.0909V2.53125C13.0909 2.82703 13.041 3.11091 12.9502 3.375ZM8.18182 6.58125H9.81818V8.26875H11.4545V9.95625H9C8.54885 9.95625 8.18182 10.3348 8.18182 10.8C8.18182 11.2652 8.54885 11.6438 9 11.6438C10.3534 11.6438 11.4545 12.7793 11.4545 14.175C11.4545 15.275 10.7705 16.2128 9.81818 16.5611V18.3937H8.18182V16.7062H6.54545V15.0188H9C9.45115 15.0188 9.81818 14.6402 9.81818 14.175C9.81818 13.7098 9.45115 13.3313 9 13.3313C7.64656 13.3313 6.54545 12.1957 6.54545 10.8C6.54545 9.70005 7.22954 8.76218 8.18182 8.41388V6.58125ZM6.54545 1.6875H11.4545V2.53125C11.4545 2.99649 11.0875 3.375 10.6364 3.375H7.36364C6.91249 3.375 6.54545 2.99649 6.54545 2.53125V1.6875ZM16.3636 19.0688V10.9688C16.3636 7.71204 13.7944 5.0625 10.6364 5.0625H7.36364C4.20562 5.0625 1.63636 7.71204 1.63636 10.9688V19.0688C1.63636 19.534 2.0034 19.9125 2.45455 19.9125H15.5455C15.9966 19.9125 16.3636 19.534 16.3636 19.0688Z" fill="#158AFE"/>
</svg>
