<svg width="25" height="25" viewBox="0 0 25 25" fill="none" xmlns="http://www.w3.org/2000/svg">
<path d="M11.1111 5.55556C11.1111 8.62381 8.62381 11.1111 5.55556 11.1111C2.48731 11.1111 0 8.62381 0 5.55556C0 2.48731 2.48731 0 5.55556 0C8.62381 0 11.1111 2.48731 11.1111 5.55556ZM1.53097 5.55556C1.53097 7.77827 3.33284 9.58014 5.55556 9.58014C7.77827 9.58014 9.58014 7.77827 9.58014 5.55556C9.58014 3.33284 7.77827 1.53097 5.55556 1.53097C3.33284 1.53097 1.53097 3.33284 1.53097 5.55556Z" fill="#5C5959"/>
<path d="M24.4446 19.4445C24.4446 22.5127 21.9573 25 18.8891 25C15.8208 25 13.3335 22.5127 13.3335 19.4445C13.3335 16.3762 15.8208 13.8889 18.8891 13.8889C21.9573 13.8889 24.4446 16.3762 24.4446 19.4445ZM14.8645 19.4445C14.8645 21.6672 16.6663 23.4691 18.8891 23.4691C21.1118 23.4691 22.9136 21.6672 22.9136 19.4445C22.9136 17.2218 21.1118 15.4199 18.8891 15.4199C16.6663 15.4199 14.8645 17.2218 14.8645 19.4445Z" fill="#5C5959"/>
<rect x="0.5" y="14.3889" width="10.1111" height="10.1111" rx="1.5" stroke="#5C5959"/>
<rect x="14.3889" y="0.5" width="10.1111" height="10.1111" rx="1.5" stroke="#5C5959"/>
</svg>
