<svg width="22" height="22" viewBox="0 0 22 22" fill="none" xmlns="http://www.w3.org/2000/svg">
<path fill-rule="evenodd" clip-rule="evenodd" d="M22 9C22 8.32542 21.9242 7.65461 21.775 7C21.6628 6.5077 21.5091 6.02455 21.3149 5.55585C20.8626 4.46392 20.1997 3.47177 19.364 2.63604C18.5282 1.80031 17.5361 1.13738 16.4442 0.68508C15.9754 0.49094 15.4923 0.33724 15 0.22504C14.3454 0.07584 13.6746 0 13 0V9H22ZM19.4672 6.32122C19.5593 6.54361 19.6397 6.77018 19.7082 7H15V2.2918C15.2298 2.36031 15.4564 2.44073 15.6788 2.53284C16.5281 2.88463 17.2997 3.40024 17.9497 4.05025C18.5998 4.70026 19.1154 5.47194 19.4672 6.32122ZM9 4C4.02944 4 0 8.02944 0 13C0 17.9706 4.02944 22 9 22C13.9706 22 18 17.9706 18 13C18 12.3254 17.9242 11.6546 17.775 11H11V4.22504C10.3454 4.07584 9.6746 4 9 4ZM9 13H15.8035C15.8035 16.7575 12.7575 19.8035 9 19.8035C5.24252 19.8035 2.19648 16.7575 2.19648 13C2.19648 9.2425 5.24252 6.19648 9 6.19648V13Z" fill="#158AFE"/>
</svg>
