<svg width="16" height="17" viewBox="0 0 16 17" fill="none" xmlns="http://www.w3.org/2000/svg">
<path fill-rule="evenodd" clip-rule="evenodd" d="M13.6185 0.316772C13.9165 0.0165408 14.3996 0.0165408 14.6975 0.316772L15.7765 1.40402C16.0745 1.70425 16.0745 2.19103 15.7765 2.49126L15.1109 3.16192C15.5174 4.01923 15.3683 5.07715 14.6635 5.78724L6.57096 13.9416L2.25496 9.59256L10.3475 1.43826C11.0522 0.728171 12.1021 0.577894 12.9529 0.98744L13.6185 0.316772ZM6.57096 11.7671L11.4412 6.85971L9.28318 4.68524L4.41298 9.59256L6.57096 11.7671ZM13.5845 4.7L12.8285 5.46185L10.6704 3.28736L11.4265 2.52551C11.7245 2.22527 12.2076 2.22527 12.5055 2.52551L13.5845 3.61275C13.8825 3.91299 13.8825 4.39976 13.5845 4.7ZM1.61881 10.218L0 16.1981L5.93454 14.5672L1.61881 10.218Z" fill="white"/>
</svg>
