<svg width="18" height="18" viewBox="0 0 18 18" fill="none" xmlns="http://www.w3.org/2000/svg">
<path fill-rule="evenodd" clip-rule="evenodd" d="M15.3209 0.251401C15.6561 -0.0838003 16.1996 -0.0838003 16.5347 0.251401L17.7486 1.46529C18.0838 1.80049 18.0838 2.34397 17.7486 2.67917L16.9998 3.42795C17.457 4.38512 17.2893 5.56625 16.4965 6.35905L7.39233 15.4632L2.53683 10.6076L11.641 1.50352C12.4337 0.710719 13.6149 0.542938 14.572 1.00019L15.3209 0.251401ZM7.39233 13.0354L12.8713 7.55645L10.4436 5.1287L4.9646 10.6076L7.39233 13.0354ZM15.2826 5.14517L14.4321 5.99576L12.0042 3.568L12.8548 2.7174C13.19 2.3822 13.7335 2.3822 14.0687 2.7174L15.2826 3.93128C15.6179 4.26649 15.6179 4.80996 15.2826 5.14517ZM1.82116 11.3059L0 17.9825L6.67636 16.1617L1.82116 11.3059Z" fill="#158AFE"/>
</svg>
