<svg width="30" height="30" viewBox="0 0 30 30" fill="none"
    xmlns="http://www.w3.org/2000/svg">
    <path d="M14.4265 8.86121V15.5612H20.9761" stroke="#5C5959" stroke-linecap="round"/>
    <path fill-rule="evenodd" clip-rule="evenodd" d="M6.44795 9.05674L6.41341 9.06348C6.28334 9.08885 6.14795 9.05992 6.03759 8.98318C5.93822 8.91409 5.86662 8.81144 5.83524 8.69455C5.63928 8.44684 5.57417 8.11898 5.67164 7.82541L5.03777 4.42455C4.98664 4.15023 5.16324 3.88888 5.43222 3.84079C5.7012 3.7927 5.9607 3.9761 6.01183 4.25042L6.48038 6.76429C7.99502 5.10463 9.94309 3.90054 12.1129 3.30784C14.9259 2.53944 17.9166 2.85189 20.5197 4.18612C23.1228 5.52034 25.1579 7.78389 26.2402 10.5489C27.3225 13.3138 27.3771 16.3886 26.3936 19.192C25.4102 21.9953 23.4568 24.333 20.9028 25.763C18.3488 27.1931 15.3711 27.6164 12.5327 26.953C9.69429 26.2896 7.1918 24.5855 5.4983 22.1627C3.99012 20.0051 3.21665 17.4106 3.28032 14.7764C3.29335 14.2374 3.77293 13.8507 4.30673 13.9081C4.84511 13.9659 5.23325 14.4534 5.22907 14.9973C5.21258 17.1406 5.858 19.2441 7.0862 21.0012C8.50209 23.0269 10.5944 24.4517 12.9675 25.0063C15.3407 25.561 17.8302 25.207 19.9656 24.0114C22.1009 22.8158 23.7341 20.8613 24.5563 18.5175C25.3786 16.1737 25.3329 13.6029 24.428 11.2912C23.5231 8.97944 21.8216 7.08694 19.6452 5.97143C17.4689 4.85592 14.9684 4.59469 12.6165 5.23713C11.0163 5.67423 9.56034 6.50907 8.37009 7.65222L10.349 7.26624C10.6172 7.21394 10.8794 7.39329 10.9346 7.66683C10.9899 7.94037 10.8173 8.20453 10.5492 8.25683L7.15674 8.9185C6.94238 9.04606 6.69049 9.09703 6.44795 9.05674Z" fill="#5C5959"/>
</svg>
