<svg width="17" height="21" viewBox="0 0 17 21" fill="none" xmlns="http://www.w3.org/2000/svg">
<path fill-rule="evenodd" clip-rule="evenodd" d="M17 7.23002L10.4085 0.808476C9.30202 -0.269492 7.50805 -0.269492 6.40161 0.808476L0 7.04507V20.4H6.61111V14.8794C6.61111 13.8631 7.45677 13.0392 8.5 13.0392C9.54323 13.0392 10.3889 13.8631 10.3889 14.8794V20.4H17V7.23002ZM7.73727 2.10969L1.88889 7.80731V18.5598H4.72222V14.8794C4.72222 12.8468 6.41359 11.199 8.5 11.199C10.5864 11.199 12.2778 12.8468 12.2778 14.8794V18.5598H15.1111V7.99226L9.0729 2.10969C8.70409 1.75037 8.10607 1.75037 7.73727 2.10969Z" fill="#158AFE"/>
</svg>
