<svg width="19" height="19" viewBox="0 0 19 19" fill="none" xmlns="http://www.w3.org/2000/svg">
<path fill-rule="evenodd" clip-rule="evenodd" d="M0 2.84923C0 1.27565 1.27599 0 2.85 0H16.15C17.7241 0 19 1.27565 19 2.84923V17.0954C19 18.1445 18.1494 18.9949 17.1 18.9949H5.84031C5.79398 18.9983 5.7472 19 5.7 19H1.9C0.850658 19 0 18.1495 0 17.1005V2.84923ZM2.85 1.89949H16.15C16.6747 1.89949 17.1 2.3247 17.1 2.84923V11.3969H13.3C12.2506 11.3969 11.4 12.2473 11.4 13.2964V14.2462H7.6V13.3015C7.6 12.2525 6.74934 11.4021 5.7 11.4021H1.9V2.84923C1.9 2.32471 2.32532 1.89949 2.85 1.89949Z" fill="black"/>
</svg>
