<svg width="18" height="15" viewBox="0 0 18 15" fill="none" xmlns="http://www.w3.org/2000/svg">
<path fill-rule="evenodd" clip-rule="evenodd" d="M0 1.2009C0 0.924755 0.223858 0.700897 0.5 0.700897H17.5C17.7761 0.700897 18 0.924755 18 1.2009V2.2009C18 2.47704 17.7761 2.7009 17.5 2.7009H0.5C0.223858 2.7009 0 2.47704 0 2.2009V1.2009ZM0 7.2009C0 6.92475 0.223858 6.7009 0.5 6.7009H17.5C17.7761 6.7009 18 6.92475 18 7.2009V8.2009C18 8.47704 17.7761 8.7009 17.5 8.7009H0.5C0.223858 8.7009 0 8.47704 0 8.2009V7.2009ZM0.5 12.7009C0.223858 12.7009 0 12.9248 0 13.2009V14.2009C0 14.477 0.223858 14.7009 0.5 14.7009H17.5C17.7761 14.7009 18 14.477 18 14.2009V13.2009C18 12.9248 17.7761 12.7009 17.5 12.7009H0.5Z" fill="#CCCCCC"/>
</svg>
