<svg width="12" height="21" viewBox="0 0 12 21" fill="none" xmlns="http://www.w3.org/2000/svg">
<path fill-rule="evenodd" clip-rule="evenodd" d="M5 17.4857V20.5714H7V17.4857H8C10.2091 17.4857 12 15.6436 12 13.3714C12 11.0992 10.2091 9.25714 8 9.25714H7V5.14286H9V7.2H11V3.08571H7V0H5V3.08571H4C1.79086 3.08571 0 4.92774 0 7.2C0 9.47222 1.79086 11.3143 4 11.3143H5V15.4286H3V13.3714H1V17.4857H5ZM7 15.4286H8C9.1046 15.4286 10 14.5076 10 13.3714C10 12.2353 9.1046 11.3143 8 11.3143H7V15.4286ZM5 9.25714V5.14286H4C2.89543 5.14286 2 6.06387 2 7.2C2 8.33616 2.89543 9.25714 4 9.25714H5Z" fill="#158AFE"/>
</svg>
