<svg width="33" height="26" viewBox="0 0 33 26" fill="none" xmlns="http://www.w3.org/2000/svg">
<path fill-rule="evenodd" clip-rule="evenodd" d="M23.7987 15.8492C24.2454 14.6138 24.4884 13.2852 24.4884 11.9014C24.4884 5.32842 19.0065 0 12.2442 0C5.48192 0 0 5.32842 0 11.9014C0 18.4743 5.48192 23.8027 12.2442 23.8027C16.1086 23.8027 19.5549 22.0626 21.7989 19.3445L29.7577 25.2913C30.6425 25.9524 31.8678 25.751 32.4945 24.8414C33.1211 23.9318 32.9118 22.6585 32.027 21.9973L23.7987 15.8492ZM12.2442 20.379C7.42727 20.379 3.52238 16.5834 3.52238 11.9014C3.52238 7.2193 7.42727 3.42375 12.2442 3.42375C17.0611 3.42375 20.966 7.2193 20.966 11.9014C20.966 16.5834 17.0611 20.379 12.2442 20.379Z" fill="#006566"/>
</svg>
