<svg width="18" height="18" viewBox="0 0 18 18" fill="none" xmlns="http://www.w3.org/2000/svg">
<g clip-path="url(#clip0_834_6008)">
<path d="M17.4685 8.67578V9.29102C17.4685 9.52535 17.3623 9.75972 17.1497 9.94381C14.6862 12.0782 12.2217 14.2117 9.75829 16.3461C9.55063 16.526 9.30454 16.6186 9.01202 16.6186V16.0033C9.30459 16.0033 9.55063 15.9108 9.75829 15.7309C12.2217 13.5965 14.6861 11.4629 17.1497 9.32862C17.3623 9.14448 17.4685 8.9102 17.4685 8.67578Z" fill="#D03A3B"/>
<path d="M0.531546 9.28809V9.22656V9.1958V9.13428V9.07275V9.04199V8.98047V8.91895V8.88818V8.82666V8.76514V8.73437V8.67285C0.531546 8.93137 0.649337 9.18812 0.86618 9.37631C3.29984 11.4868 5.73618 13.595 8.17098 15.7048C8.39953 15.9027 8.67618 15.9942 9.01215 16.0035V16.6187C8.67626 16.6095 8.39953 16.518 8.17098 16.32C5.73618 14.2102 3.29985 12.102 0.86618 9.99154C0.649319 9.80337 0.531546 9.54661 0.531546 9.28809Z" fill="#D03A3B"/>
<path d="M8.97866 1.34668C9.26453 1.34668 9.55076 1.44093 9.76873 1.62963C12.2288 3.75989 14.6888 5.89015 17.1483 8.02079C17.5745 8.38985 17.5754 8.95969 17.1497 9.32854C14.6862 11.4629 12.2217 13.5965 9.75834 15.7308C9.55067 15.9108 9.30459 16.0033 9.01213 16.0033C8.67623 15.994 8.39948 15.9025 8.17095 15.7046C5.73616 13.5948 3.29984 11.4866 0.866163 9.3761C0.521965 9.0775 0.427413 8.60601 0.657071 8.22911C0.725959 8.11595 0.809456 8.02118 0.911338 7.93294C3.33904 5.83144 5.76605 3.72941 8.19329 1.62733C8.40943 1.44032 8.69388 1.34668 8.97866 1.34668Z" fill="#FF4B4C"/>
<path d="M6.15108 6.57324V6.86856H5.11543V6.57324H6.15108Z" fill="#E19C49"/>
<path d="M6.15108 6.57324V6.86856H5.11543V6.57324H6.15108Z" fill="#E19C49"/>
<path d="M12.9001 6.57422V6.86953H11.8508V6.57422H12.9001Z" fill="#E19C49"/>
<path d="M12.9001 6.57422V6.86953H11.8508V6.57422H12.9001Z" fill="#E19C49"/>
<path d="M12.9001 6.57424C12.8945 6.64117 12.8924 6.70802 12.8924 6.77486C12.8924 6.923 12.9021 7.07073 12.9022 7.21767C12.9024 7.37322 12.8919 7.52783 12.848 7.68092C12.7332 8.082 12.2874 8.40382 11.8509 8.41762V6.57422L12.9001 6.57424Z" fill="#FF4B4C"/>
<path d="M6.15111 6.57324V8.42672C6.07632 8.41125 6.00033 8.40079 5.92854 8.38012C5.434 8.23706 5.13156 7.89306 5.10903 7.42888C5.10414 7.32682 5.10256 7.2246 5.10256 7.12233C5.10254 6.95189 5.10683 6.7813 5.1071 6.61084C5.1071 6.5998 5.11168 6.5889 5.11541 6.57326L6.15111 6.57324Z" fill="#FF4B4C"/>
<path d="M6.92423 5.69336C7.10889 5.69433 7.28539 5.69492 7.46198 5.69531C7.63555 5.69568 7.80926 5.69579 7.98282 5.69579C8.16295 5.69579 8.32579 5.69568 8.48856 5.69556C8.66192 5.69543 8.83524 5.69535 9.00858 5.69535C9.17662 5.69535 9.34462 5.69543 9.51267 5.69554C9.67572 5.69561 9.83886 5.69568 10.0019 5.6957C10.1954 5.6957 10.3651 5.69561 10.5349 5.69531C10.715 5.69501 10.8951 5.6945 11.0751 5.69366C11.1705 5.69436 11.1975 5.71683 11.1974 5.79784C11.1954 6.26769 11.1949 6.73748 11.195 7.20726C11.195 7.57267 11.1953 7.93803 11.1953 8.30334C11.1951 9.32825 10.271 10.1622 9.08937 10.2044C9.04342 10.2058 9.02055 10.2061 8.99782 10.2061C7.87061 10.2004 6.93816 9.47007 6.82546 8.49563C6.81536 8.40832 6.80971 8.32009 6.80954 8.23231C6.80831 7.4227 6.81024 6.61298 6.80671 5.80336C6.80789 5.71872 6.83283 5.69412 6.92423 5.69336Z" fill="#FF4B4C"/>
<path d="M13.5128 6.9873V7.28253C13.5128 7.36761 13.5121 7.45269 13.5097 7.53773C13.5042 7.73566 13.5067 7.93837 13.4581 8.12972C13.2937 8.77802 12.5839 9.26063 11.8175 9.26339C11.7498 9.26376 11.7189 9.27626 11.6951 9.33887C11.3575 10.2287 10.6653 10.7867 9.60657 10.9955C9.51158 11.0142 9.4134 11.0205 9.3131 11.033V10.7377C9.4134 10.7252 9.51156 10.7189 9.60657 10.7002C10.6653 10.4913 11.3575 9.93342 11.6951 9.04356C11.7189 8.98096 11.7498 8.96839 11.8175 8.96808C12.5839 8.96532 13.2937 8.48275 13.4581 7.83441C13.5067 7.64307 13.5042 7.44036 13.5097 7.24242C13.5121 7.15739 13.5128 7.07237 13.5128 6.9873Z" fill="#E19C49"/>
<path d="M13.5128 6.9873V7.28262C13.5128 7.3677 13.5121 7.45277 13.5097 7.53782C13.507 7.63494 13.5063 7.73323 13.5004 7.83076V7.53544C13.5063 7.43794 13.507 7.33962 13.5097 7.2425C13.5121 7.15746 13.5128 7.07238 13.5128 6.9873ZM13.5004 7.53543V7.83074C13.4943 7.93194 13.4828 8.03236 13.4581 8.12981C13.4096 8.32103 13.3137 8.49781 13.1829 8.65211V8.3568C13.3136 8.2025 13.4096 8.0257 13.4581 7.8345C13.4828 7.73703 13.4943 7.63662 13.5004 7.53543Z" fill="#FF8984"/>
<path d="M13.1829 8.35645V8.65178C13.0797 8.77347 12.9547 8.88119 12.8143 8.97101V8.6757C12.9547 8.58586 13.0797 8.47814 13.1829 8.35645ZM12.8143 8.67566V8.97098C12.7022 9.0425 12.5826 9.10167 12.4577 9.14743V8.85211C12.5842 8.80564 12.704 8.74621 12.8143 8.67566ZM12.4577 8.85213V9.14743C12.3297 9.19447 12.197 9.22752 12.0618 9.24599V8.95067C12.197 8.9322 12.3297 8.89916 12.4577 8.85213Z" fill="#FF8984"/>
<path d="M12.0619 8.9502V9.24551C11.9815 9.25648 11.8998 9.2623 11.8176 9.26259C11.8031 9.2627 11.7904 9.26326 11.779 9.26486V8.96955C11.7904 8.96798 11.8031 8.96739 11.8176 8.96732C11.8993 8.96698 11.9809 8.96126 12.0619 8.9502ZM11.779 8.96953V9.26484C11.77 9.26593 11.7612 9.26801 11.7527 9.27107V8.97575C11.7606 8.97284 11.7693 8.97083 11.779 8.96953ZM11.7526 8.97574V9.27105C11.747 9.27316 11.7416 9.27576 11.7367 9.27889V8.98358C11.7416 8.98045 11.747 8.97783 11.7526 8.97574ZM11.7367 8.98359V9.27889C11.7301 9.28317 11.7241 9.28845 11.719 9.29452V8.9992C11.7243 8.99287 11.7302 8.98776 11.7367 8.98359ZM11.719 8.99919V9.29452C11.7099 9.30526 11.7022 9.31948 11.6951 9.33807C11.5855 9.62715 11.4384 9.88117 11.2535 10.0996V9.80428C11.4384 9.58584 11.5855 9.33182 11.6951 9.04276C11.7022 9.02416 11.7099 9.00996 11.719 8.99919ZM11.2534 9.8043V10.0996C11.0992 10.2817 10.9188 10.4391 10.7118 10.5713V10.276C10.9188 10.1438 11.0993 9.98646 11.2534 9.8043Z" fill="#FF8984"/>
<path d="M10.7118 10.2764V10.5717C10.5456 10.6779 10.3623 10.7679 10.1617 10.8416V10.5462C10.3623 10.4726 10.5456 10.3826 10.7118 10.2764ZM10.1617 10.5463V10.8416C9.98942 10.9049 9.80437 10.9561 9.6066 10.9951C9.57986 11.0003 9.55297 11.0047 9.52597 11.0083V10.713C9.55297 10.7094 9.57986 10.705 9.6066 10.6998C9.80443 10.6608 9.98942 10.6095 10.1617 10.5463ZM9.52597 10.713V11.0083C9.4564 11.0178 9.38535 11.0236 9.31317 11.0325V10.7372C9.38535 10.7282 9.4564 10.7225 9.52597 10.713Z" fill="#FF8984"/>
<path d="M4.48673 7.30991V7.28038V7.26559V7.23608V7.20657V7.19178V7.16227V7.13276V7.11797V7.08846V7.05893V7.04416V7.01465C4.48673 7.22532 4.49095 7.43573 4.50819 7.64537C4.56776 8.37075 5.32965 8.96485 6.16829 8.96668C6.26463 8.96703 6.2907 8.99693 6.31851 9.06888C6.64081 9.89964 7.28561 10.4412 8.26564 10.6733C8.40333 10.706 8.54703 10.7195 8.69054 10.7424V11.0377C8.54703 11.0148 8.40335 11.0013 8.26564 10.9687C7.28562 10.7364 6.64084 10.1949 6.31851 9.36419C6.2907 9.29221 6.26463 9.26229 6.16829 9.26199C5.32965 9.26017 4.56776 8.66606 4.50819 7.9407C4.49093 7.73103 4.48673 7.52058 4.48673 7.30991Z" fill="#E19C49"/>
<path d="M8.69054 10.7425V11.0378C8.54699 11.0149 8.40333 11.0014 8.26562 10.9687C7.28559 10.7365 6.64082 10.195 6.31849 9.36423C6.29068 9.29225 6.26461 9.26233 6.16827 9.26203C5.32965 9.26022 4.56773 8.6661 4.50817 7.94073C4.49095 7.73106 4.48669 7.52067 4.48669 7.30998V7.01465C4.48669 7.22532 4.49095 7.43579 4.50817 7.64542C4.56773 8.37078 5.32965 8.96492 6.16827 8.96673C6.26461 8.96709 6.29068 8.99699 6.31849 9.06893C6.64079 9.89969 7.28559 10.4412 8.26562 10.6734C8.40333 10.7061 8.54701 10.7196 8.69054 10.7425Z" fill="#FF8984"/>
<path d="M13.5132 6.38108C13.5068 6.66787 13.5177 6.95497 13.5097 7.2418C13.5042 7.43973 13.5067 7.64244 13.4581 7.83379C13.2937 8.48209 12.5839 8.96472 11.8175 8.96746C11.7498 8.96778 11.7189 8.98033 11.6951 9.04294C11.3575 9.93278 10.6653 10.4907 9.60657 10.6996C9.51158 10.7183 9.4134 10.7246 9.3131 10.737V12.0713H9.41806C9.66171 12.0713 9.90548 12.0709 10.1492 12.0709C10.332 12.0709 10.5148 12.0711 10.6975 12.0717C10.9824 12.0726 11.1837 12.2535 11.183 12.5C11.183 12.5709 11.1536 12.6034 11.0684 12.6032C10.3795 12.6027 9.69056 12.6025 9.00158 12.6025C8.31264 12.6025 7.62368 12.6028 6.93482 12.6031C6.85524 12.6031 6.82564 12.5724 6.82423 12.5049C6.81927 12.2544 7.02091 12.0723 7.31185 12.0715C7.50721 12.0712 7.70261 12.0711 7.89883 12.0711C8.16049 12.0711 8.42363 12.0713 8.69052 12.0713V10.7418C8.54699 10.7189 8.40333 10.7054 8.26562 10.6727C7.2856 10.4405 6.64082 9.89899 6.31849 9.06827C6.29068 8.99629 6.26461 8.9664 6.16827 8.96607C5.32963 8.96426 4.56775 8.37012 4.50817 7.64476C4.47258 7.2122 4.49241 6.77624 4.49049 6.34167C4.48979 6.18713 4.65811 6.03276 4.85828 6.03276C5.03689 6.03798 5.20379 6.03942 5.37068 6.03942C5.60733 6.03942 5.84402 6.03648 6.08075 6.03648H6.19857C6.19857 5.90619 6.19824 5.78222 6.19857 5.6582C6.19947 5.3711 6.43635 5.16456 6.76823 5.16441C7.51294 5.1642 8.2576 5.16406 9.00227 5.16406C9.74696 5.16406 10.4916 5.1642 11.2364 5.16441C11.567 5.16457 11.8058 5.37189 11.8085 5.65868C11.8097 5.78053 11.8087 5.9025 11.8087 6.03648H11.9175C12.1525 6.03648 12.3878 6.04019 12.6229 6.04019C12.7847 6.04019 12.9464 6.0384 13.108 6.03249C13.3529 6.03212 13.5175 6.19012 13.5132 6.38108ZM11.1953 8.3035C11.1953 7.93817 11.195 7.57283 11.195 7.20741C11.1949 6.7376 11.1953 6.26781 11.1974 5.79798C11.1976 5.71697 11.1705 5.69448 11.0823 5.69381C10.8951 5.69466 10.7149 5.69517 10.5349 5.69547C10.3652 5.69577 10.1953 5.69585 10.0255 5.69585C9.83883 5.69585 9.67568 5.69577 9.51265 5.6957C9.3446 5.69563 9.17657 5.69552 9.00856 5.69552C8.83519 5.69552 8.66187 5.69564 8.48855 5.69573C8.3257 5.69585 8.16288 5.69594 8.0001 5.69594C7.80922 5.69594 7.6355 5.69585 7.46197 5.69547C7.28541 5.69512 7.10886 5.6945 6.93228 5.69353C6.83277 5.69431 6.80787 5.71892 6.80669 5.79582C6.8102 6.61312 6.80824 7.42287 6.8095 8.23247C6.80968 8.32023 6.81534 8.40848 6.82543 8.49579C6.93814 9.47026 7.87057 10.2005 8.98423 10.2062C9.02062 10.2062 9.04331 10.2059 9.06629 10.2053C10.271 10.1624 11.1951 9.32836 11.1953 8.3035ZM6.15108 8.42656V6.57307H5.11543C5.11168 6.58872 5.10709 6.59962 5.10709 6.61065C5.10685 6.78107 5.10256 6.95171 5.10256 7.12216C5.10256 7.22441 5.10412 7.32666 5.10905 7.42869C5.13153 7.89291 5.43401 8.23691 5.92857 8.37993C6.00031 8.40064 6.07628 8.41106 6.15108 8.42656ZM12.848 7.68095C12.892 7.52783 12.9024 7.37325 12.9023 7.2177C12.9021 7.0708 12.8924 6.92304 12.8925 6.77489C12.8925 6.70805 12.8945 6.64119 12.9002 6.5743H11.8509V8.41767C12.2874 8.40385 12.7332 8.08205 12.848 7.68095Z" fill="#D03A3B"/>
<path d="M6.82411 12.7914V12.4961C6.82411 12.4991 6.82413 12.5021 6.8242 12.5052C6.82562 12.5727 6.85519 12.6034 6.93478 12.6034C7.62367 12.603 8.31264 12.6028 9.00155 12.6028C9.69052 12.6028 10.3795 12.6031 11.0684 12.6035C11.1536 12.6037 11.183 12.5712 11.183 12.5003V12.7956C11.183 12.8665 11.1536 12.899 11.0684 12.8988C10.3795 12.8984 9.69056 12.8982 9.00156 12.8982C8.31264 12.8982 7.62365 12.8984 6.93478 12.8987C6.8552 12.8987 6.82562 12.868 6.8242 12.8005C6.82416 12.7974 6.82411 12.7945 6.82411 12.7914Z" fill="#E19C49"/>
<path d="M11.183 12.5V12.7953C11.183 12.8 11.1829 12.8044 11.1826 12.8087V12.5134C11.1829 12.5091 11.183 12.5046 11.183 12.5ZM11.1826 12.5134V12.8087C11.1811 12.8341 11.175 12.8538 11.1627 12.8683V12.573C11.175 12.5585 11.1811 12.5387 11.1826 12.5134Z" fill="#E19C49"/>
<path d="M11.1631 12.5732V12.8686C11.1586 12.8737 11.1534 12.8781 11.1474 12.8819V12.5866C11.1534 12.5828 11.1586 12.5783 11.1631 12.5732Z" fill="#E19C49"/>
<path d="M11.1474 12.5865V12.8818C11.1421 12.8852 11.1365 12.8879 11.1306 12.8901V12.5947C11.1365 12.5926 11.1421 12.5899 11.1474 12.5865ZM11.1306 12.5947V12.8901C11.1214 12.8933 11.1118 12.8956 11.1021 12.8969V12.6015C11.1118 12.6003 11.1214 12.598 11.1306 12.5947ZM11.1021 12.6015V12.8969C11.0909 12.8983 11.0797 12.8989 11.0684 12.8988C10.3795 12.8984 9.69056 12.8982 9.00158 12.8982C8.31264 12.8982 7.62368 12.8984 6.93482 12.8987C6.85524 12.8987 6.82564 12.868 6.82423 12.8005C6.82418 12.7975 6.82415 12.7945 6.82414 12.7914V12.4961C6.82414 12.4992 6.82416 12.5021 6.82423 12.5052C6.82562 12.5727 6.85522 12.6034 6.93482 12.6034C7.6237 12.603 8.31269 12.6029 9.00158 12.6029C9.69056 12.6029 10.3795 12.6031 11.0684 12.6035C11.0797 12.6036 11.0909 12.6029 11.1021 12.6015Z" fill="#FF8984"/>
<path d="M19.9267 8.6377V9.36244C19.9267 9.63895 19.8018 9.9145 19.5519 10.1318C16.6532 12.6476 13.7545 15.1624 10.8558 17.6772C10.6117 17.8896 10.3222 17.9983 9.97739 17.9983V17.2735C10.3212 17.2735 10.6108 17.1649 10.8558 16.9524C13.7545 14.4366 16.6532 11.9219 19.5519 9.40707C19.8018 9.19072 19.9267 8.91421 19.9267 8.6377Z" fill="#2F7DC1" fill-opacity="0.5"/>
<path d="M0 9.36048V9.28772V9.25182V9.17905V9.10629V9.07039V8.99762V8.92486V8.88896V8.81619V8.74343V8.70753V8.63477C0 8.93941 0.138501 9.24212 0.394182 9.46429C3.25704 11.9519 6.12377 14.4366 8.98857 16.9233C9.25781 17.1561 9.58322 17.2648 9.97836 17.2755V18.0002C9.58322 17.9895 9.25781 17.8818 8.98857 17.648C6.12377 15.1614 3.25801 12.6767 0.394182 10.189C0.138501 9.96783 0 9.66513 0 9.36048Z" fill="#2F7DC1" fill-opacity="0.5"/>
<path d="M9.93879 0C10.2749 0 10.6119 0.110604 10.8685 0.333753C13.7624 2.84466 16.6572 5.35557 19.5511 7.86647C20.0527 8.30113 20.0537 8.97348 19.553 9.40814C16.6543 11.9239 13.7556 14.4387 10.8569 16.9535C10.6129 17.1659 10.3233 17.2746 9.97947 17.2746C9.58433 17.2639 9.25892 17.1562 8.98968 16.9224C6.12488 14.4358 3.25912 11.9511 0.39529 9.46344C-0.00953917 9.11125 -0.120919 8.55629 0.14929 8.11193C0.230643 7.97805 0.328457 7.86647 0.44855 7.76266C3.30463 5.28571 6.15974 2.80876 9.01582 0.330842C9.26859 0.110604 9.60369 0 9.93879 0Z" fill="#E3EBEF"/>
<path d="M9.96381 14.1649C13.011 14.1649 15.4813 11.6903 15.4813 8.63764C15.4813 5.585 13.011 3.11035 9.96381 3.11035C6.91658 3.11035 4.44632 5.585 4.44632 8.63764C4.44632 11.6903 6.91658 14.1649 9.96381 14.1649Z" fill="url(#paint0_linear_834_6008)"/>
<path d="M13.9424 9.00715C13.8349 8.21449 13.0223 8.03306 12.5923 8.46383C12.3841 8.67243 12.3192 8.97222 12.3976 9.23709C12.4025 9.25261 12.3976 9.27008 12.3841 9.27978L11.1706 10.2034C11.1502 10.2189 11.1202 10.2112 11.1105 10.1869L10.4723 8.58608C10.4665 8.57056 10.4703 8.55406 10.482 8.54339C10.7531 8.28726 10.8413 7.83708 10.5217 7.4131C10.5197 7.41019 10.5168 7.40727 10.513 7.40436C9.87473 6.92217 9.17354 7.3675 9.17354 7.97776C9.17354 8.20091 9.26749 8.40174 9.4176 8.54339C9.42922 8.55406 9.43309 8.57153 9.42728 8.58608L8.78905 10.1869C8.77937 10.2112 8.75031 10.2189 8.72901 10.2034L7.51548 9.27978C7.50193 9.27008 7.49709 9.25261 7.50194 9.23709C7.58135 8.97222 7.51646 8.67243 7.30824 8.46383C7.00607 8.16113 6.5131 8.16113 6.21093 8.46383C5.90876 8.76654 5.90876 9.26038 6.21093 9.56308C6.33683 9.68921 6.49567 9.76295 6.65934 9.78429C6.67581 9.78623 6.68839 9.79787 6.69227 9.8134L7.14456 11.6238L7.26562 12.1041L7.54357 13.2169C7.54648 13.2344 7.56391 13.246 7.58135 13.246H12.3463L12.3483 13.2441C12.3502 13.2334 12.357 13.2266 12.3589 13.2169L12.6369 12.1041L12.7579 11.6238L13.2092 9.8134C13.2131 9.79787 13.2267 9.78623 13.2422 9.78429C13.5724 9.7416 13.8804 9.48644 13.9434 9.01879C13.9424 9.01394 13.9424 9.01006 13.9424 9.00715Z" fill="url(#paint1_linear_834_6008)"/>
<path d="M6.69416 9.5126C7.02686 9.5126 7.29656 9.24242 7.29656 8.90914C7.29656 8.57585 7.02686 8.30566 6.69416 8.30566C6.36147 8.30566 6.09177 8.57585 6.09177 8.90914C6.09177 9.24242 6.36147 9.5126 6.69416 9.5126Z" fill="#FCFAE7"/>
<path d="M9.96185 8.4794C10.2945 8.4794 10.5643 8.20922 10.5643 7.87593C10.5643 7.54264 10.2945 7.27246 9.96185 7.27246C9.62915 7.27246 9.35945 7.54264 9.35945 7.87593C9.35945 8.20922 9.62915 8.4794 9.96185 8.4794Z" fill="#FCFAE7"/>
<path d="M13.1464 9.53214C13.4791 9.53214 13.7488 9.26195 13.7488 8.92867C13.7488 8.59538 13.4791 8.3252 13.1464 8.3252C12.8137 8.3252 12.544 8.59538 12.544 8.92867C12.544 9.26195 12.8137 9.53214 13.1464 9.53214Z" fill="#FCFAE7"/>
<path d="M12.6127 13.2802C12.5953 13.3617 12.5304 13.4509 12.4926 13.4975C12.4752 13.5188 12.45 13.5305 12.4229 13.5305H7.58138C7.42933 13.5305 7.29858 13.4257 7.26662 13.2802L6.9906 12.1731L6.86954 11.6929L6.45503 10.0299C6.28845 9.98047 6.1364 9.89024 6.01146 9.76411C5.81098 9.56328 5.70154 9.29744 5.70154 9.01317C5.70154 8.7289 5.81195 8.46209 6.01146 8.26222C6.21194 8.06236 6.4773 7.95176 6.76107 7.95176C7.04484 7.95176 7.31117 8.06236 7.51068 8.26222C7.74506 8.49701 7.85353 8.82398 7.81285 9.14706L8.64672 9.78157L9.10966 8.6212C8.9702 8.43686 8.89175 8.20983 8.89175 7.97698C8.89175 7.57143 9.1174 7.20664 9.47962 7.02618C9.85927 6.83601 10.3106 6.89229 10.6873 7.17656C10.7115 7.19499 10.7328 7.21634 10.7512 7.24059C11.1338 7.74898 11.0515 8.28163 10.7948 8.6212L11.2578 9.78157L12.0916 9.14706C12.051 8.82398 12.1594 8.49702 12.3938 8.26319C12.6805 7.97601 13.0979 7.87802 13.4834 8.00803C13.8853 8.14386 14.1632 8.50284 14.2272 8.96854C14.231 8.99861 14.231 9.02869 14.2272 9.0578C14.1613 9.54193 13.864 9.9077 13.4495 10.0309L13.0349 11.6929L12.9139 12.1731M7.77217 12.961H12.1284L12.3599 12.0344L12.481 11.5542L12.9323 9.74471C12.9652 9.6147 13.0717 9.51962 13.2054 9.50215C13.2955 9.49051 13.587 9.42163 13.6567 9.01414C13.616 8.78032 13.4872 8.6115 13.3003 8.54747C13.1212 8.48731 12.9274 8.53194 12.7948 8.66583C12.6669 8.7939 12.6195 8.98212 12.6718 9.15579C12.7105 9.28483 12.664 9.42551 12.5575 9.50701L11.344 10.4306C11.2645 10.4918 11.159 10.5121 11.0621 10.485C10.9653 10.4578 10.8859 10.386 10.8481 10.2929L10.2099 8.69203C10.1605 8.56784 10.1915 8.42813 10.2883 8.33596C10.4384 8.19431 10.5324 7.92168 10.3164 7.61121C10.1208 7.47538 9.90963 7.44725 9.73239 7.53554C9.56388 7.61994 9.45929 7.78876 9.45929 7.97698C9.45929 8.11378 9.51449 8.24088 9.61424 8.33499C9.71206 8.42716 9.74306 8.56687 9.6927 8.69106L9.05445 10.2919C9.01668 10.385 8.93727 10.4568 8.84042 10.484C8.74357 10.5112 8.638 10.4908 8.55858 10.4297L7.34506 9.50603C7.23853 9.42454 7.19302 9.28386 7.23176 9.15482C7.28406 8.98018 7.2366 8.79293 7.10876 8.66486C6.917 8.47276 6.60514 8.47276 6.41338 8.66486C6.3204 8.758 6.27004 8.88122 6.27004 9.01317C6.27004 9.14512 6.32137 9.26833 6.41338 9.36147C6.49085 9.43909 6.58868 9.4876 6.69715 9.50118C6.82983 9.51865 6.93734 9.61373 6.9693 9.74374L7.42158 11.5551L7.54264 12.0344L7.77217 12.961Z" fill="#010101"/>
<path d="M9.96386 12.2872C10.2473 12.2872 10.4772 12.057 10.4772 11.773C10.4772 11.489 10.2473 11.2588 9.96386 11.2588C9.68037 11.2588 9.45056 11.489 9.45056 11.773C9.45056 12.057 9.68037 12.2872 9.96386 12.2872Z" fill="#864721"/>
<path d="M7.28798 6.67095L7.00905 6.82036C6.96837 6.84171 6.93545 6.87469 6.91317 6.91447L6.75918 7.19098C6.66718 7.35592 6.42989 7.35398 6.34079 7.1871L6.19165 6.90768C6.17034 6.86693 6.13742 6.83395 6.09771 6.81163L5.82168 6.65737C5.65704 6.5652 5.65898 6.3275 5.82556 6.23824L6.10448 6.08882C6.14516 6.06748 6.17809 6.03449 6.20036 5.99471L6.35435 5.7182C6.44636 5.55327 6.68364 5.55521 6.77274 5.72208L6.92188 6.0015C6.94319 6.04225 6.97613 6.07524 7.01584 6.09755L7.29185 6.25182C7.4565 6.34399 7.45456 6.58169 7.28798 6.67095Z" fill="url(#paint2_linear_834_6008)"/>
<path d="M14.0093 6.67095L13.7303 6.82036C13.6897 6.84171 13.6567 6.87469 13.6345 6.91447L13.4805 7.19098C13.3885 7.35592 13.1512 7.35398 13.0621 7.1871L12.9129 6.90768C12.8916 6.86693 12.8587 6.83395 12.819 6.81163L12.543 6.65737C12.3783 6.5652 12.3803 6.3275 12.5468 6.23824L12.8258 6.08882C12.8664 6.06748 12.8994 6.03449 12.9216 5.99471L13.0756 5.7182C13.1676 5.55327 13.4049 5.55521 13.494 5.72208L13.6432 6.0015C13.6645 6.04225 13.6974 6.07524 13.7371 6.09755L14.0131 6.25182C14.1778 6.34399 14.1749 6.58169 14.0093 6.67095Z" fill="url(#paint3_linear_834_6008)"/>
<path d="M10.1411 3.54322L10.3154 3.89735C10.3445 3.95556 10.3997 3.99631 10.4636 4.00601L10.8529 4.06228C11.0147 4.08557 11.0795 4.28543 10.9624 4.39992L10.6805 4.67546C10.634 4.72106 10.6127 4.78606 10.6234 4.8501L10.6902 5.23915C10.7183 5.40117 10.5488 5.52439 10.4035 5.44775L10.0549 5.26437C9.99774 5.2343 9.92897 5.2343 9.87086 5.26437L9.52221 5.44775C9.37693 5.52439 9.20841 5.40117 9.23553 5.23915L9.30236 4.8501C9.31301 4.78606 9.29171 4.72009 9.24522 4.67546L8.96339 4.39992C8.8462 4.28543 8.91109 4.08654 9.07283 4.06228L9.46216 4.00601C9.52608 3.99631 9.58225 3.95653 9.61033 3.89735L9.78466 3.54322C9.85924 3.39575 10.0684 3.39575 10.1411 3.54322Z" fill="url(#paint4_linear_834_6008)"/>
</g>
<defs>
<linearGradient id="paint0_linear_834_6008" x1="9.96356" y1="14.1643" x2="9.96356" y2="3.11012" gradientUnits="userSpaceOnUse">
<stop stop-color="#365CA2"/>
<stop offset="0.2005" stop-color="#4168AA"/>
<stop offset="0.5624" stop-color="#5F88C1"/>
<stop offset="1" stop-color="#8BB6E1"/>
</linearGradient>
<linearGradient id="paint1_linear_834_6008" x1="9.96358" y1="13.2445" x2="9.96358" y2="7.19867" gradientUnits="userSpaceOnUse">
<stop offset="0.000863693" stop-color="#DE8A35"/>
<stop offset="0.4869" stop-color="#F2C359"/>
<stop offset="0.4997" stop-color="#F2C55E"/>
<stop offset="0.6745" stop-color="#F7DC9D"/>
<stop offset="0.822" stop-color="#FAEDCC"/>
<stop offset="0.935" stop-color="#FCF8E8"/>
<stop offset="1" stop-color="#FDFCF3"/>
</linearGradient>
<linearGradient id="paint2_linear_834_6008" x1="6.55713" y1="7.31349" x2="6.55713" y2="5.59675" gradientUnits="userSpaceOnUse">
<stop offset="0.00170776" stop-color="#EEC051"/>
<stop offset="1" stop-color="#F8DD73"/>
</linearGradient>
<linearGradient id="paint3_linear_834_6008" x1="13.2782" y1="7.31349" x2="13.2782" y2="5.59675" gradientUnits="userSpaceOnUse">
<stop offset="0.00170776" stop-color="#EEC051"/>
<stop offset="1" stop-color="#F8DD73"/>
</linearGradient>
<linearGradient id="paint4_linear_834_6008" x1="9.97579" y1="5.46479" x2="9.9758" y2="3.42733" gradientUnits="userSpaceOnUse">
<stop offset="0.00170776" stop-color="#EEC051"/>
<stop offset="1" stop-color="#F8DD73"/>
</linearGradient>
<clipPath id="clip0_834_6008">
<rect width="18" height="18" fill="white"/>
</clipPath>
</defs>
</svg>
