<svg width="18" height="16" viewBox="0 0 18 16" fill="none" xmlns="http://www.w3.org/2000/svg">
<path fill-rule="evenodd" clip-rule="evenodd" d="M17.9954 1.84885C17.6916 2.02333 16.7835 2.37243 15.9371 2.45983C16.4797 2.15247 17.284 1.14938 17.4827 0.350691C16.9605 0.702132 15.7605 1.21029 15.1688 1.21029V1.21092C14.4934 0.472984 13.5419 0.0117045 12.4878 0.0117045C10.4386 0.0117045 8.77729 1.75055 8.77729 3.89304C8.77729 4.19058 8.81001 4.48048 8.87134 4.75949H8.87092C6.09098 4.68269 3.0514 3.22675 1.22168 0.730805C0.097272 2.76797 1.0708 5.03508 2.3465 5.86025C1.91021 5.89359 1.10556 5.80806 0.727344 5.42204C0.702396 6.77408 1.32307 8.56526 3.58906 9.21534C3.1532 9.46039 2.38001 9.39013 2.04433 9.33811C2.16209 10.4794 3.69005 11.9716 5.36072 11.9716C4.765 12.6929 2.52475 14.0002 0.011394 13.5846C1.71846 14.6713 3.70928 15.3008 5.81499 15.3008C11.8001 15.3008 16.4494 10.2256 16.1984 3.9636C16.1976 3.95582 16.1976 3.94864 16.1963 3.94273C16.1976 3.9256 16.1984 3.90955 16.1984 3.89304C16.1984 3.87402 16.1963 3.85565 16.1955 3.83602C16.7414 3.44577 17.4724 2.75675 17.9954 1.84885Z" fill="white" fill-opacity="0.5"/>
</svg>
